<?xml version="1.0" encoding="UTF-8"?>
<svg id="uuid-65167207-42cd-4da3-8d4a-540615a3b004" data-name="Layer 2" xmlns="http://www.w3.org/2000/svg" viewBox="0 0 523.44 523.44">
  <g id="uuid-79149e71-d1b8-4e3d-93d5-362b4658e1ec" data-name="Layer 1">
    <rect width="523.44" height="523.44" style="fill: #fff;"/>
    <g>
      <polygon points="391.87 268.53 340.39 320 288.91 320 243.88 365.05 243.88 320 185.96 320 185.96 113.72 391.87 113.72 391.87 268.53" style="fill: #fff; fill-rule: evenodd;"/>
      <path d="M173.1,87.98l-64.35,64.35v244.89h77.21v64.34l64.34-64.34h51.48l115.82-115.82V87.98h-244.51ZM391.87,268.53h0l-51.47,51.47h-51.48l-45.04,45.05v-45.05h-57.91V113.72h205.9v154.81Z" style="fill: #a544ff; fill-rule: evenodd;"/>
    </g>
    <circle cx="288.92" cy="214.8" r="87.83"/>
    <circle cx="302.92" cy="200.79" r="23.71" style="fill: #fff;"/>
    <path d="M267.35,200.79c0-19.64,15.92-35.56,35.56-35.56,6.37,0,12.34,1.68,17.51,4.61l11.62-11.62c-27.89-21.31-67.93-19.23-93.42,6.27-25.5,25.5-27.59,65.54-6.27,93.42l39.62-39.62c-2.93-5.17-4.61-11.14-4.61-17.51Z" style="fill: #ff4343; fill-rule: evenodd;"/>
    <path d="M345.49,171.67l-11.62,11.62c2.93,5.17,4.61,11.14,4.61,17.51,0,19.64-15.92,35.56-35.56,35.56-6.37,0-12.34-1.68-17.51-4.61l-39.62,39.62c27.89,21.31,67.93,19.23,93.42-6.27,25.5-25.5,27.59-65.54,6.27-93.42Z" style="fill: #fff; fill-rule: evenodd;"/>
  </g>
</svg>