<?xml version="1.0" encoding="UTF-8"?>
<svg id="uuid-23eb948f-ac94-489a-9d09-7910bc8a0348" data-name="Layer 2" xmlns="http://www.w3.org/2000/svg" viewBox="0 0 308.85 373.57">
  <g id="uuid-c6e17ba2-a2f4-4997-8d27-4d967ad8b3dc" data-name="Layer 1">
    <g>
      <polygon points="283.11 180.55 231.64 232.02 180.16 232.02 135.12 277.06 135.12 232.02 77.21 232.02 77.21 25.73 283.11 25.73 283.11 180.55" style="fill: #fff; fill-rule: evenodd;"/>
      <path d="M64.35,0L0,64.35v244.89h77.21v64.34l64.34-64.34h51.48l115.82-115.82V0H64.35ZM283.11,180.55h0l-51.47,51.47h-51.48l-45.04,45.05v-45.05h-57.91V25.73h205.9v154.81Z" style="fill: #a544ff; fill-rule: evenodd;"/>
    </g>
    <circle cx="180.16" cy="126.81" r="87.83"/>
    <circle cx="194.16" cy="112.81" r="23.71" style="fill: #fff;"/>
    <path d="M158.6,112.81c0-19.64,15.92-35.56,35.56-35.56,6.37,0,12.34,1.68,17.51,4.61l11.62-11.62c-27.89-21.31-67.93-19.23-93.42,6.27-25.5,25.5-27.59,65.54-6.27,93.42l39.62-39.62c-2.93-5.17-4.61-11.14-4.61-17.51Z" style="fill: #ff4343; fill-rule: evenodd;"/>
    <path d="M236.73,83.68l-11.62,11.62c2.93,5.17,4.61,11.14,4.61,17.51,0,19.64-15.92,35.56-35.56,35.56-6.37,0-12.34-1.68-17.51-4.61l-39.62,39.62c27.89,21.31,67.93,19.23,93.42-6.27,25.5-25.5,27.59-65.54,6.27-93.42Z" style="fill: #fff; fill-rule: evenodd;"/>
  </g>
</svg>